<svg width="25" height="27" viewBox="0 0 25 27" fill="none" xmlns="http://www.w3.org/2000/svg">
<path d="M19.5145 22.8741C19.3912 22.8745 19.2683 22.8598 19.1485 22.8305L13.4833 21.4538C13.4183 21.4378 13.3505 21.4378 13.2855 21.4538L7.6203 22.8305C7.40139 22.8845 7.17347 22.8896 6.95238 22.8457C6.73128 22.8018 6.5223 22.7099 6.33995 22.5763C6.1576 22.4426 6.00625 22.2706 5.89641 22.072C5.78657 21.8734 5.72086 21.6531 5.70387 21.4263L5.2492 15.5617C5.24372 15.4949 5.22269 15.4305 5.18781 15.3735L2.14152 10.3601C2.02342 10.1665 1.94843 9.94922 1.92173 9.72343C1.89502 9.49765 1.91725 9.2687 1.98687 9.05244C2.0565 8.83618 2.17185 8.63778 2.32494 8.47095C2.47804 8.30413 2.66522 8.17288 2.87354 8.08628L8.25911 5.84C8.32054 5.81417 8.37507 5.77408 8.41825 5.72298L12.2011 1.24647C12.3471 1.07403 12.5284 0.935517 12.7324 0.840461C12.9365 0.745405 13.1585 0.696056 13.3833 0.695801C13.6084 0.695724 13.8308 0.744914 14.0353 0.839981C14.2398 0.935048 14.4214 1.07373 14.5677 1.24647L18.3505 5.72298C18.3937 5.77408 18.4482 5.81417 18.5097 5.84L23.8952 8.08628C24.1036 8.17288 24.2907 8.30413 24.4438 8.47095C24.5969 8.63778 24.7123 8.83618 24.7819 9.05244C24.8515 9.2687 24.8738 9.49765 24.847 9.72343C24.8203 9.94922 24.7454 10.1665 24.6273 10.3601L21.5787 15.3804C21.5428 15.4369 21.5217 15.5016 21.5173 15.5685L21.0626 21.4332C21.0328 21.8274 20.8565 22.1957 20.5689 22.4642C20.2814 22.7327 19.9039 22.8816 19.5122 22.881L19.5145 22.8741ZM13.3833 1.84303C13.3226 1.84268 13.2626 1.85586 13.2076 1.88165C13.1526 1.90743 13.1039 1.94517 13.065 1.99217L9.28212 6.46868C9.12199 6.65475 8.92012 6.7995 8.69333 6.89086L3.30775 9.14632C3.25079 9.1705 3.19984 9.20711 3.15857 9.25353C3.11729 9.29994 3.08672 9.35501 3.06905 9.41478C3.04955 9.47267 3.0431 9.53424 3.05018 9.59497C3.05726 9.65571 3.07769 9.71408 3.10997 9.76583L6.15854 14.7724C6.28864 14.9839 6.3666 15.2239 6.38587 15.4722L6.84054 21.3368C6.84477 21.3978 6.86215 21.4572 6.89146 21.5107C6.92077 21.5642 6.96131 21.6106 7.01024 21.6467C7.05917 21.6827 7.11532 21.7075 7.17475 21.7194C7.23418 21.7313 7.29547 21.7299 7.35432 21.7154L13.0218 20.3387C13.2618 20.2817 13.5116 20.2817 13.7515 20.3387L19.4167 21.7154C19.4749 21.7295 19.5353 21.7308 19.594 21.7193C19.6527 21.7078 19.7082 21.6837 19.7569 21.6487C19.8056 21.6137 19.8463 21.5686 19.8762 21.5164C19.9062 21.4641 19.9247 21.4061 19.9305 21.346L20.3852 15.4813C20.4056 15.2333 20.4834 14.9936 20.6125 14.7815L23.6588 9.75895C23.6911 9.7072 23.7115 9.64882 23.7186 9.58809C23.7257 9.52736 23.7192 9.46579 23.6997 9.40789C23.6824 9.35049 23.6532 9.29747 23.614 9.25237C23.5748 9.20727 23.5265 9.17112 23.4724 9.14632L18.0755 6.89086C17.8474 6.79633 17.6448 6.64849 17.4844 6.4595L13.7038 1.99217C13.6647 1.94487 13.6156 1.90695 13.5602 1.88115C13.5047 1.85536 13.4443 1.84234 13.3833 1.84303Z" fill="#B27A29"/>
<path d="M13.4537 0.925241L17.2365 5.39945C17.3368 5.52044 17.4648 5.61495 17.6094 5.67479L22.9972 7.92107C23.1286 7.97699 23.2465 8.06101 23.3426 8.16732C23.4388 8.27364 23.5109 8.39973 23.5542 8.53691C23.5974 8.67408 23.6106 8.81908 23.593 8.96192C23.5753 9.10476 23.5272 9.24203 23.4519 9.36429L20.4124 14.3846C20.3302 14.5193 20.281 14.6719 20.2692 14.8297L19.8145 20.6944C19.8025 20.8372 19.76 20.9758 19.6899 21.1005C19.6198 21.2252 19.5237 21.3331 19.4084 21.4168C19.2931 21.5005 19.1611 21.558 19.0217 21.5854C18.8822 21.6128 18.7386 21.6094 18.6006 21.5754L12.9331 20.1988C12.7836 20.1631 12.6279 20.1631 12.4784 20.1988L6.80413 21.5754C6.66528 21.6094 6.52078 21.6126 6.38061 21.5847C6.24044 21.5568 6.10794 21.4985 5.99228 21.4138C5.87663 21.3292 5.78056 21.2202 5.71074 21.0944C5.64092 20.9686 5.599 20.829 5.58788 20.6852L5.13321 14.8205C5.12341 14.6669 5.07827 14.5176 5.00136 14.3846L1.9437 9.37117C1.86842 9.24892 1.82029 9.11164 1.80263 8.9688C1.78498 8.82597 1.79821 8.68097 1.84143 8.54379C1.88465 8.40661 1.95681 8.28052 2.05296 8.17421C2.14911 8.06789 2.26695 7.98388 2.39837 7.92795L7.78622 5.68167C7.93081 5.62183 8.05878 5.52733 8.15905 5.40634L11.951 0.925241C12.0434 0.815057 12.1585 0.72652 12.2882 0.665793C12.418 0.605066 12.5593 0.573608 12.7023 0.573608C12.8454 0.573608 12.9867 0.605066 13.1164 0.665793C13.2462 0.72652 13.3613 0.815057 13.4537 0.925241Z" fill="#FFEC61"/>
<path d="M12.7022 0C12.9278 0 13.1509 0.0496323 13.3556 0.145421C13.5602 0.241205 13.7418 0.380802 13.8875 0.554571L13.8873 0.554795L17.6687 5.02721L17.6707 5.02923L17.6725 5.03147C17.7033 5.06858 17.7404 5.09961 17.782 5.12312L17.825 5.14395L17.8264 5.14463L23.2143 7.39092L23.216 7.39181L23.218 7.39249C23.4251 7.48062 23.6109 7.61303 23.7624 7.78057C23.9139 7.94813 24.0277 8.14696 24.0958 8.36315C24.1639 8.57932 24.1847 8.80783 24.1569 9.0329C24.1293 9.25655 24.054 9.47147 23.9367 9.6632L20.8974 14.6837L20.8963 14.6855C20.8616 14.7422 20.8409 14.8066 20.8359 14.873L20.8357 14.8744L20.381 20.7392V20.741L20.3808 20.743C20.3618 20.9683 20.2947 21.1869 20.1841 21.3836C20.0735 21.5803 19.922 21.7506 19.7401 21.8826C19.5582 22.0146 19.3501 22.1054 19.1302 22.1486C18.9108 22.1916 18.6848 22.1861 18.4675 22.1329L12.8023 20.7569C12.7388 20.7417 12.6725 20.7419 12.609 20.7571L12.6088 20.7569L6.93781 22.1326L6.93803 22.1329C6.71924 22.1864 6.49156 22.1914 6.27068 22.1474C6.04976 22.1035 5.84088 22.0115 5.6586 21.8781C5.47634 21.7447 5.32485 21.5729 5.21481 21.3746C5.10482 21.1764 5.03875 20.9565 5.02122 20.73L4.56655 14.8652L4.56633 14.8614L4.56611 14.8573C4.56197 14.7926 4.54276 14.7298 4.51038 14.6738L1.46112 9.67373L1.46089 9.67396C1.34226 9.48129 1.26649 9.26494 1.23866 9.03984C1.21084 8.81473 1.23161 8.58607 1.29972 8.36988C1.36783 8.15371 1.48166 7.95506 1.63317 7.78752C1.7847 7.61997 1.97042 7.48757 2.17753 7.39943L2.17953 7.39854L2.18131 7.39786L7.5692 5.15157L7.57053 5.1509C7.62965 5.12644 7.68205 5.08788 7.72305 5.03842L7.72505 5.03618L7.72682 5.03371L11.5187 0.552778C11.6642 0.379853 11.8452 0.240867 12.0491 0.145421C12.2537 0.0496449 12.4766 1.29685e-05 12.7022 0ZM12.7022 1.14723C12.6418 1.14725 12.5821 1.16057 12.5273 1.18622C12.4725 1.21188 12.4238 1.24924 12.3848 1.29579L12.3832 1.29781L8.59109 5.77897L8.59087 5.77874C8.43223 5.96867 8.23068 6.11718 8.003 6.21164L2.61888 8.45637L2.6191 8.45659C2.56341 8.4803 2.51355 8.51595 2.4728 8.56101C2.43204 8.60608 2.40143 8.65948 2.38311 8.71763C2.36479 8.77578 2.35898 8.83724 2.36646 8.89778C2.37208 8.94321 2.38508 8.98733 2.40465 9.02842L2.4264 9.0683L2.42773 9.07054L5.48877 14.0897L5.4921 14.0955C5.61219 14.3032 5.68295 14.536 5.69945 14.7758H5.6999L6.15457 20.6403C6.15928 20.7013 6.17693 20.7607 6.20652 20.814C6.23612 20.8673 6.27692 20.9137 6.32596 20.9496C6.37495 20.9854 6.43109 21.0101 6.49046 21.0219C6.54989 21.0338 6.61121 21.0323 6.67007 21.0179L6.67118 21.0177L12.3455 19.641L12.3477 19.6406C12.5537 19.5914 12.7672 19.5853 12.9751 19.6222L13.0637 19.6406L13.0661 19.641L18.7335 21.0177L18.735 21.0181C18.7934 21.0325 18.8542 21.034 18.9131 21.0224C18.972 21.0108 19.0278 20.9865 19.0765 20.9511C19.1252 20.9158 19.1659 20.8701 19.1955 20.8174C19.2251 20.7647 19.243 20.7061 19.2481 20.6457L19.7025 14.785C19.7214 14.5364 19.7989 14.2959 19.9286 14.0836L22.9669 9.06516L22.9692 9.06158C23.0011 9.00975 23.0214 8.9514 23.0289 8.89084C23.0364 8.8303 23.0308 8.76882 23.0125 8.71069C22.9941 8.65255 22.9635 8.59912 22.9228 8.55406C22.882 8.50901 22.8321 8.47335 22.7765 8.44965L17.3937 6.20537C17.1637 6.11016 16.96 5.96001 16.8005 5.76754L13.0212 1.29758L13.0199 1.29579C12.9809 1.24924 12.9322 1.21189 12.8774 1.18622C12.8225 1.16056 12.7627 1.14723 12.7022 1.14723Z" fill="#F7AE33"/>
<path d="M2.7303 14.568L2.38475 15.5891L3.02583 16.4541L1.95508 16.4403L1.339 17.3214L1.02074 16.2912L0 15.97L0.872967 15.3481L0.859327 14.2675L1.71638 14.9145L2.7303 14.568Z" fill="#F7AE33"/>
<path d="M21.3444 2.23075L21.0012 3.25179L21.64 4.1168L20.5715 4.10304L19.9531 4.98411L19.6371 3.9539L18.6141 3.63267L19.4871 3.01087L19.4735 1.93018L20.3305 2.57722L21.3444 2.23075Z" fill="#F7AE33"/>
<path d="M14.3083 23.2757L13.9651 24.2967L14.6062 25.164L13.5354 25.148L12.9193 26.0314L12.6011 24.9988L11.5803 24.6799L12.4533 24.0558L12.4397 22.9774L13.2967 23.6222L14.3083 23.2757Z" fill="#F7AE33"/>
<path d="M6.77699 2.97187L6.15637 3.22426L6.01087 3.88507L5.57893 3.36652L4.91284 3.43306L5.26748 2.85944L4.99923 2.23764L5.65168 2.40055L6.15182 1.95312L6.19956 2.6277L6.77699 2.97187Z" fill="#F7AE33"/>
<path d="M24.8727 16.6102L24.2498 16.8626L24.1066 17.5234L23.6746 17.0048L23.0085 17.0691L23.3632 16.4955L23.0949 15.8759L23.7451 16.0389L24.2475 15.5914L24.2953 16.266L24.8727 16.6102Z" fill="#F7AE33"/>
<path d="M14.5531 8.79759V6.39966H15.3559C15.5423 6.39966 15.6946 6.43361 15.813 6.50152C15.9321 6.56865 16.0202 6.65959 16.0775 6.77433C16.1347 6.88908 16.1633 7.01709 16.1633 7.15838C16.1633 7.29966 16.1347 7.42807 16.0775 7.54359C16.021 7.65912 15.9336 7.75122 15.8153 7.81991C15.6969 7.88782 15.5454 7.92178 15.3605 7.92178H14.7851V7.66419H15.3512C15.4789 7.66419 15.5813 7.64194 15.6587 7.59745C15.736 7.55296 15.7921 7.49285 15.8269 7.41714C15.8625 7.34064 15.8802 7.25439 15.8802 7.15838C15.8802 7.06237 15.8625 6.9765 15.8269 6.90079C15.7921 6.82507 15.7356 6.76575 15.6575 6.72282C15.5794 6.6791 15.4758 6.65725 15.3466 6.65725H14.8408V8.79759H14.5531Z" fill="#1C0A05"/>
<path d="M14.0695 7.59869C14.0695 7.8516 14.0242 8.07016 13.9338 8.25437C13.8433 8.43859 13.7191 8.58065 13.5614 8.68057C13.4036 8.78048 13.2234 8.83044 13.0208 8.83044C12.8181 8.83044 12.6379 8.78048 12.4802 8.68057C12.3224 8.58065 12.1983 8.43859 12.1078 8.25437C12.0173 8.07016 11.972 7.8516 11.972 7.59869C11.972 7.34578 12.0173 7.12722 12.1078 6.94301C12.1983 6.75879 12.3224 6.61673 12.4802 6.51681C12.6379 6.4169 12.8181 6.36694 13.0208 6.36694C13.2234 6.36694 13.4036 6.4169 13.5614 6.51681C13.7191 6.61673 13.8433 6.75879 13.9338 6.94301C14.0242 7.12722 14.0695 7.34578 14.0695 7.59869ZM13.7911 7.59869C13.7911 7.39106 13.7566 7.21582 13.6878 7.07297C13.6198 6.93013 13.5273 6.82202 13.4106 6.74864C13.2945 6.67527 13.1646 6.63858 13.0208 6.63858C12.8769 6.63858 12.7466 6.67527 12.6298 6.74864C12.5138 6.82202 12.4214 6.93013 12.3526 7.07297C12.2845 7.21582 12.2505 7.39106 12.2505 7.59869C12.2505 7.80632 12.2845 7.98156 12.3526 8.12441C12.4214 8.26725 12.5138 8.37536 12.6298 8.44874C12.7466 8.52211 12.8769 8.5588 13.0208 8.5588C13.1646 8.5588 13.2945 8.52211 13.4106 8.44874C13.5273 8.37536 13.6198 8.26725 13.6878 8.12441C13.7566 7.98156 13.7911 7.80632 13.7911 7.59869Z" fill="#1C0A05"/>
<path d="M9.93762 6.65725V6.39966H11.7195V6.65725H10.9724V8.79759H10.6847V6.65725H9.93762Z" fill="#1C0A05"/>
<path d="M14.8943 9.14182V6.7439H15.6971C15.8835 6.7439 16.0358 6.77785 16.1541 6.84576C16.2732 6.91289 16.3614 7.00383 16.4186 7.11857C16.4759 7.23332 16.5045 7.36133 16.5045 7.50262C16.5045 7.6439 16.4759 7.7723 16.4186 7.88783C16.3622 8.00335 16.2748 8.09546 16.1565 8.16415C16.0381 8.23206 15.8865 8.26602 15.7017 8.26602H15.1263V8.00843H15.6924C15.82 8.00843 15.9225 7.98618 15.9999 7.94169C16.0772 7.8972 16.1333 7.83709 16.1681 7.76138C16.2036 7.68488 16.2214 7.59863 16.2214 7.50262C16.2214 7.4066 16.2036 7.32074 16.1681 7.24503C16.1333 7.16931 16.0768 7.10999 15.9987 7.06705C15.9206 7.02334 15.8169 7.00149 15.6878 7.00149H15.182V9.14182H14.8943Z" fill="white"/>
<path d="M14.4105 7.94281C14.4105 8.19571 14.3653 8.41427 14.2748 8.59849C14.1843 8.78271 14.0602 8.92477 13.9024 9.02468C13.7447 9.1246 13.5645 9.17456 13.3618 9.17456C13.1592 9.17456 12.979 9.1246 12.8212 9.02468C12.6635 8.92477 12.5393 8.78271 12.4488 8.59849C12.3584 8.41427 12.3131 8.19571 12.3131 7.94281C12.3131 7.6899 12.3584 7.47134 12.4488 7.28712C12.5393 7.10291 12.6635 6.96084 12.8212 6.86093C12.979 6.76102 13.1592 6.71106 13.3618 6.71106C13.5645 6.71106 13.7447 6.76102 13.9024 6.86093C14.0602 6.96084 14.1843 7.10291 14.2748 7.28712C14.3653 7.47134 14.4105 7.6899 14.4105 7.94281ZM14.1321 7.94281C14.1321 7.73517 14.0977 7.55994 14.0289 7.41709C13.9608 7.27424 13.8684 7.16614 13.7516 7.09276C13.6356 7.01939 13.5057 6.9827 13.3618 6.9827C13.218 6.9827 13.0877 7.01939 12.9709 7.09276C12.8549 7.16614 12.7625 7.27424 12.6936 7.41709C12.6256 7.55994 12.5915 7.73517 12.5915 7.94281C12.5915 8.15044 12.6256 8.32568 12.6936 8.46852C12.7625 8.61137 12.8549 8.71948 12.9709 8.79285C13.0877 8.86623 13.218 8.90291 13.3618 8.90291C13.5057 8.90291 13.6356 8.86623 13.7516 8.79285C13.8684 8.71948 13.9608 8.61137 14.0289 8.46852C14.0977 8.32568 14.1321 8.15044 14.1321 7.94281Z" fill="white"/>
<path d="M10.2788 7.00149V6.7439H12.0607V7.00149H11.3136V9.14182H11.0259V7.00149H10.2788Z" fill="white"/>
<path d="M14.5531 8.79759V6.39966H15.3559C15.5423 6.39966 15.6946 6.43361 15.813 6.50152C15.9321 6.56865 16.0202 6.65959 16.0775 6.77433C16.1347 6.88908 16.1633 7.01709 16.1633 7.15838C16.1633 7.29966 16.1347 7.42807 16.0775 7.54359C16.021 7.65912 15.9336 7.75122 15.8153 7.81991C15.6969 7.88782 15.5454 7.92178 15.3605 7.92178H14.7851V7.66419H15.3512C15.4789 7.66419 15.5813 7.64194 15.6587 7.59745C15.736 7.55296 15.7921 7.49285 15.8269 7.41714C15.8625 7.34064 15.8802 7.25439 15.8802 7.15838C15.8802 7.06237 15.8625 6.9765 15.8269 6.90079C15.7921 6.82507 15.7356 6.76575 15.6575 6.72282C15.5794 6.6791 15.4758 6.65725 15.3466 6.65725H14.8408V8.79759H14.5531Z" fill="#1D1D1B"/>
<path d="M14.0695 7.59869C14.0695 7.8516 14.0242 8.07016 13.9338 8.25437C13.8433 8.43859 13.7191 8.58065 13.5614 8.68057C13.4036 8.78048 13.2234 8.83044 13.0208 8.83044C12.8181 8.83044 12.6379 8.78048 12.4802 8.68057C12.3224 8.58065 12.1983 8.43859 12.1078 8.25437C12.0173 8.07016 11.972 7.8516 11.972 7.59869C11.972 7.34578 12.0173 7.12722 12.1078 6.94301C12.1983 6.75879 12.3224 6.61673 12.4802 6.51681C12.6379 6.4169 12.8181 6.36694 13.0208 6.36694C13.2234 6.36694 13.4036 6.4169 13.5614 6.51681C13.7191 6.61673 13.8433 6.75879 13.9338 6.94301C14.0242 7.12722 14.0695 7.34578 14.0695 7.59869ZM13.7911 7.59869C13.7911 7.39106 13.7566 7.21582 13.6878 7.07297C13.6198 6.93013 13.5273 6.82202 13.4106 6.74864C13.2945 6.67527 13.1646 6.63858 13.0208 6.63858C12.8769 6.63858 12.7466 6.67527 12.6298 6.74864C12.5138 6.82202 12.4214 6.93013 12.3526 7.07297C12.2845 7.21582 12.2505 7.39106 12.2505 7.59869C12.2505 7.80632 12.2845 7.98156 12.3526 8.12441C12.4214 8.26725 12.5138 8.37536 12.6298 8.44874C12.7466 8.52211 12.8769 8.5588 13.0208 8.5588C13.1646 8.5588 13.2945 8.52211 13.4106 8.44874C13.5273 8.37536 13.6198 8.26725 13.6878 8.12441C13.7566 7.98156 13.7911 7.80632 13.7911 7.59869Z" fill="#1D1D1B"/>
<path d="M9.93762 6.65725V6.39966H11.7195V6.65725H10.9724V8.79759H10.6847V6.65725H9.93762Z" fill="#1D1D1B"/>
<path d="M13.8825 10.1816V17.2686H13.0322V11.0814H12.991L11.2767 12.2302V11.3582L13.0322 10.1816H13.8825Z" fill="#1C0A05"/>
<path d="M14.2234 10.5259V17.6129H13.3731V11.4256H13.332L11.6177 12.5745V11.7024L13.3731 10.5259H14.2234Z" fill="white"/>
<path d="M13.8825 10.1816V17.2686H13.0322V11.0814H12.991L11.2767 12.2302V11.3582L13.0322 10.1816H13.8825Z" fill="#1D1D1B"/>
</svg>
