<svg width="25" height="26" viewBox="0 0 25 26" fill="none" xmlns="http://www.w3.org/2000/svg">
<path d="M19.1728 22.4735C19.0516 22.4739 18.9309 22.4595 18.8132 22.4307L13.2472 21.0781C13.1833 21.0624 13.1167 21.0624 13.0528 21.0781L7.48687 22.4307C7.27179 22.4837 7.04786 22.4888 6.83064 22.4456C6.61341 22.4025 6.40809 22.3121 6.22894 22.1809C6.04978 22.0496 5.90108 21.8805 5.79316 21.6854C5.68524 21.4903 5.62069 21.2739 5.60399 21.0511L5.15728 15.2891C5.15191 15.2236 5.13124 15.1602 5.09698 15.1043L2.10403 10.1786C1.988 9.98839 1.91432 9.77496 1.88809 9.55313C1.86185 9.3313 1.88369 9.10636 1.95209 8.89389C2.0205 8.68142 2.13383 8.48649 2.28424 8.32259C2.43466 8.15868 2.61856 8.02973 2.82323 7.94465L8.11449 5.7377C8.17485 5.71233 8.22841 5.67294 8.27084 5.62273L11.9875 1.22462C12.1309 1.05519 12.309 0.919112 12.5095 0.825721C12.7099 0.73233 12.9281 0.683844 13.1489 0.683594C13.3701 0.683518 13.5886 0.731847 13.7895 0.825249C13.9904 0.918651 14.1689 1.05491 14.3126 1.22462L18.0292 5.62273C18.0716 5.67294 18.1252 5.71233 18.1855 5.7377L23.4768 7.94465C23.6815 8.02973 23.8654 8.15868 24.0158 8.32259C24.1662 8.48649 24.2795 8.68142 24.3479 8.89389C24.4163 9.10636 24.4382 9.3313 24.4119 9.55313C24.3857 9.77496 24.312 9.98839 24.196 10.1786L21.2008 15.111C21.1656 15.1665 21.1448 15.2301 21.1405 15.2959L20.6938 21.0578C20.6645 21.4451 20.4912 21.807 20.2087 22.0708C19.9262 22.3346 19.5554 22.4808 19.1705 22.4803L19.1728 22.4735ZM13.1489 1.81074C13.0893 1.81039 13.0304 1.82334 12.9763 1.84867C12.9222 1.874 12.8744 1.91109 12.8362 1.95727L9.11959 6.35538C8.96226 6.53819 8.76392 6.6804 8.5411 6.77016L3.24984 8.98613C3.19387 9.00988 3.14382 9.04585 3.10327 9.09145C3.06272 9.13706 3.03268 9.19116 3.01532 9.24988C2.99616 9.30676 2.98982 9.36725 2.99678 9.42692C3.00373 9.48659 3.0238 9.54394 3.05552 9.59478L6.0507 14.5136C6.17852 14.7215 6.25512 14.9573 6.27405 15.2012L6.72076 20.9631C6.72492 21.0231 6.74199 21.0814 6.77079 21.134C6.79958 21.1865 6.83941 21.2321 6.88749 21.2675C6.93556 21.303 6.99073 21.3274 7.04912 21.339C7.10751 21.3507 7.16772 21.3494 7.22554 21.3351L12.7938 19.9825C13.0295 19.9265 13.275 19.9265 13.5107 19.9825L19.0767 21.3351C19.1338 21.3489 19.1932 21.3502 19.2509 21.3389C19.3085 21.3276 19.3631 21.304 19.4109 21.2696C19.4588 21.2352 19.4987 21.1908 19.5282 21.1395C19.5576 21.0882 19.5758 21.0312 19.5815 20.9722L20.0282 15.2102C20.0482 14.9665 20.1247 14.731 20.2516 14.5227L23.2445 9.58802C23.2762 9.53718 23.2963 9.47983 23.3032 9.42016C23.3102 9.36049 23.3039 9.3 23.2847 9.24312C23.2677 9.18672 23.239 9.13463 23.2005 9.09032C23.162 9.04601 23.1145 9.01049 23.0613 8.98613L17.7589 6.77016C17.5348 6.67729 17.3358 6.53204 17.1782 6.34636L13.4638 1.95727C13.4254 1.91079 13.3772 1.87353 13.3227 1.84819C13.2682 1.82284 13.2089 1.81005 13.1489 1.81074Z" fill="#B65C45"/>
<path d="M13.2181 0.909073L16.9348 5.30493C17.0333 5.4238 17.159 5.51665 17.3011 5.57544L22.5945 7.78239C22.7237 7.83733 22.8394 7.91987 22.9339 8.02433C23.0284 8.12878 23.0993 8.25266 23.1417 8.38744C23.1842 8.52221 23.1972 8.66468 23.1798 8.80501C23.1625 8.94535 23.1152 9.08022 23.0413 9.20033L20.055 14.1327C19.9742 14.2651 19.9259 14.415 19.9143 14.57L19.4676 20.332C19.4558 20.4724 19.414 20.6085 19.3451 20.731C19.2762 20.8535 19.1819 20.9595 19.0686 21.0418C18.9553 21.124 18.8256 21.1805 18.6886 21.2075C18.5516 21.2344 18.4105 21.231 18.2749 21.1976L12.7067 19.8451C12.5598 19.8101 12.4068 19.8101 12.26 19.8451L6.68503 21.1976C6.54862 21.231 6.40665 21.2341 6.26893 21.2067C6.13121 21.1793 6.00104 21.122 5.88741 21.0389C5.77377 20.9557 5.6794 20.8486 5.6108 20.725C5.5422 20.6014 5.50101 20.4642 5.49009 20.323L5.04338 14.561C5.03375 14.41 4.9894 14.2634 4.91384 14.1327L1.90972 9.2071C1.83576 9.08698 1.78847 8.95211 1.77113 8.81177C1.75378 8.67144 1.76679 8.52898 1.80925 8.3942C1.85171 8.25943 1.92261 8.13554 2.01707 8.03109C2.11154 7.92664 2.22732 7.8441 2.35643 7.78915L7.64992 5.58221C7.79199 5.52342 7.91772 5.43057 8.01622 5.31169L11.7418 0.909073C11.8326 0.800819 11.9456 0.713832 12.0731 0.654169C12.2006 0.594506 12.3394 0.563599 12.48 0.563599C12.6205 0.563599 12.7593 0.594506 12.8868 0.654169C13.0143 0.713832 13.1274 0.800819 13.2181 0.909073Z" fill="#F3AC4D"/>
<path d="M12.4799 0C12.7016 0 12.9207 0.0487632 13.1218 0.142874C13.3229 0.236981 13.5013 0.374133 13.6444 0.544859L13.6442 0.545079L17.3594 4.93917L17.3614 4.94116L17.3631 4.94336C17.3934 4.97981 17.4298 5.0103 17.4707 5.0334L17.513 5.05387L17.5143 5.05453L22.8078 7.26149L22.8096 7.26237L22.8115 7.26303C23.015 7.34962 23.1975 7.47971 23.3464 7.64432C23.4953 7.80894 23.6071 8.00428 23.674 8.21669C23.7409 8.42907 23.7613 8.65358 23.734 8.87471C23.7068 9.09444 23.6329 9.3056 23.5176 9.49398L20.5315 14.4265L20.5305 14.4283C20.4964 14.4841 20.476 14.5473 20.4711 14.6126L20.4709 14.6139L20.0242 20.376V20.3777L20.024 20.3797C20.0053 20.6011 19.9394 20.8158 19.8307 21.0091C19.7221 21.2024 19.5732 21.3696 19.3945 21.4994C19.2158 21.6291 19.0114 21.7183 18.7953 21.7607C18.5797 21.803 18.3577 21.7976 18.1442 21.7453L12.5783 20.3934C12.5158 20.3785 12.4507 20.3787 12.3883 20.3936L12.3881 20.3934L6.81643 21.745L6.81665 21.7453C6.60169 21.7979 6.37799 21.8028 6.16098 21.7596C5.94393 21.7164 5.73872 21.6261 5.55963 21.495C5.38055 21.3639 5.23172 21.1951 5.12361 21.0003C5.01554 20.8056 4.95063 20.5895 4.93341 20.3669L4.4867 14.6049L4.48648 14.6011L4.48626 14.5972C4.4822 14.5336 4.46333 14.4719 4.43151 14.4169L1.43565 9.50432L1.43543 9.50454C1.31888 9.31525 1.24443 9.10268 1.21709 8.88153C1.18975 8.66036 1.21016 8.43571 1.27707 8.2233C1.34399 8.01092 1.45583 7.81574 1.60469 7.65114C1.75357 7.48652 1.93604 7.35644 2.13952 7.26985L2.14148 7.26897L2.14323 7.26831L7.43676 5.06136L7.43807 5.06069C7.49615 5.03666 7.54764 4.99877 7.58792 4.95018L7.58988 4.94798L7.59163 4.94556L11.3171 0.543098C11.46 0.373201 11.6378 0.236649 11.8382 0.142874C12.0393 0.0487755 12.2583 1.27414e-05 12.4799 0ZM12.4799 1.12714C12.4205 1.12716 12.3619 1.14024 12.308 1.16545C12.2542 1.19066 12.2063 1.22737 12.168 1.2731L12.1665 1.27508L8.44076 5.67776L8.44055 5.67754C8.28468 5.86414 8.08666 6.01005 7.86297 6.10286L2.57314 8.30828L2.57336 8.3085C2.51864 8.33179 2.46965 8.36682 2.42962 8.41108C2.38957 8.45536 2.3595 8.50783 2.3415 8.56496C2.3235 8.62209 2.31779 8.68247 2.32514 8.74196C2.33065 8.7866 2.34343 8.82994 2.36265 8.87031L2.38403 8.90949L2.38534 8.91169L5.39277 13.8429L5.39604 13.8487C5.51403 14.0527 5.58354 14.2814 5.59976 14.517H5.6002L6.04691 20.2789C6.05154 20.3387 6.06888 20.3971 6.09795 20.4495C6.12703 20.5019 6.16712 20.5474 6.21529 20.5827C6.26343 20.6179 6.31859 20.6422 6.37692 20.6538C6.4353 20.6654 6.49555 20.664 6.55338 20.6498L6.55447 20.6496L12.1294 19.297L12.1316 19.2966C12.334 19.2483 12.5437 19.2423 12.748 19.2785L12.835 19.2966L12.8374 19.297L18.4055 20.6496L18.4071 20.65C18.4644 20.6641 18.5241 20.6656 18.582 20.6542C18.6399 20.6429 18.6947 20.619 18.7425 20.5842C18.7904 20.5495 18.8303 20.5046 18.8594 20.4528C18.8885 20.401 18.9061 20.3435 18.9111 20.2842L19.3576 14.5261C19.3762 14.2818 19.4523 14.0456 19.5797 13.837L22.5649 8.90641L22.567 8.90289C22.5984 8.85196 22.6184 8.79464 22.6257 8.73514C22.6331 8.67566 22.6276 8.61525 22.6096 8.55814C22.5916 8.50102 22.5615 8.44853 22.5215 8.40426C22.4814 8.36 22.4324 8.32496 22.3777 8.30167L17.0892 6.0967C16.8632 6.00316 16.6631 5.85563 16.5064 5.66653L12.7933 1.27486L12.792 1.2731C12.7537 1.22737 12.7058 1.19066 12.652 1.16545C12.5981 1.14023 12.5393 1.12714 12.4799 1.12714Z" fill="#D9704C"/>
<path d="M2.68248 14.313L2.34298 15.3162L2.97284 16.166L1.92084 16.1525L1.31556 17.0182L1.00286 16.006L0 15.6904L0.857679 15.0795L0.844278 14.0177L1.68632 14.6534L2.68248 14.313Z" fill="#D9704C"/>
<path d="M20.9708 2.19167L20.6335 3.19483L21.2612 4.0447L20.2114 4.03117L19.6039 4.89682L19.2934 3.88464L18.2883 3.56904L19.146 2.95813L19.1326 1.89636L19.9747 2.53207L20.9708 2.19167Z" fill="#D9704C"/>
<path d="M14.0579 22.868L13.7207 23.8712L14.3505 24.7233L13.2985 24.7075L12.6932 25.5754L12.3805 24.561L11.3777 24.2476L12.2354 23.6345L12.222 22.575L13.064 23.2084L14.0579 22.868Z" fill="#D9704C"/>
<path d="M6.65829 2.91985L6.04853 3.16782L5.90558 3.81705L5.48121 3.30759L4.82678 3.37296L5.17521 2.80939L4.91166 2.19848L5.55268 2.35853L6.04406 1.91895L6.09097 2.58171L6.65829 2.91985Z" fill="#D9704C"/>
<path d="M24.4372 16.3194L23.8252 16.5674L23.6845 17.2166L23.2601 16.7071L22.6057 16.7702L22.9541 16.2067L22.6906 15.598L23.3294 15.7581L23.823 15.3185L23.8699 15.9812L24.4372 16.3194Z" fill="#D9704C"/>
<path d="M14.2983 8.64353V6.2876H15.0871C15.2702 6.2876 15.4199 6.32096 15.5361 6.38768C15.6531 6.45363 15.7398 6.54298 15.796 6.65571C15.8522 6.76845 15.8803 6.89422 15.8803 7.03303C15.8803 7.17184 15.8522 7.298 15.796 7.4115C15.7405 7.525 15.6547 7.61549 15.5384 7.68298C15.4222 7.7497 15.2732 7.78306 15.0916 7.78306H14.5263V7.52998H15.0825C15.2079 7.52998 15.3086 7.50813 15.3845 7.46441C15.4605 7.4207 15.5156 7.36165 15.5498 7.28726C15.5848 7.2121 15.6022 7.12736 15.6022 7.03303C15.6022 6.9387 15.5848 6.85434 15.5498 6.77995C15.5156 6.70556 15.4601 6.64728 15.3834 6.6051C15.3067 6.56215 15.2048 6.54068 15.0779 6.54068H14.581V8.64353H14.2983Z" fill="#1C0A05"/>
<path d="M13.823 7.46555C13.823 7.71403 13.7786 7.92876 13.6897 8.10975C13.6008 8.29074 13.4788 8.43031 13.3238 8.52848C13.1688 8.62664 12.9918 8.67572 12.7927 8.67572C12.5936 8.67572 12.4166 8.62664 12.2615 8.52848C12.1065 8.43031 11.9846 8.29074 11.8957 8.10975C11.8068 7.92876 11.7623 7.71403 11.7623 7.46555C11.7623 7.21707 11.8068 7.00234 11.8957 6.82135C11.9846 6.64036 12.1065 6.50078 12.2615 6.40262C12.4166 6.30445 12.5936 6.25537 12.7927 6.25537C12.9918 6.25537 13.1688 6.30445 13.3238 6.40262C13.4788 6.50078 13.6008 6.64036 13.6897 6.82135C13.7786 7.00234 13.823 7.21707 13.823 7.46555ZM13.5495 7.46555C13.5495 7.26155 13.5157 7.08938 13.4481 6.94904C13.3812 6.80869 13.2904 6.70248 13.1756 6.63039C13.0617 6.5583 12.934 6.52225 12.7927 6.52225C12.6514 6.52225 12.5233 6.5583 12.4086 6.63039C12.2946 6.70248 12.2038 6.80869 12.1362 6.94904C12.0693 7.08938 12.0359 7.26155 12.0359 7.46555C12.0359 7.66954 12.0693 7.84171 12.1362 7.98206C12.2038 8.1224 12.2946 8.22862 12.4086 8.30071C12.5233 8.3728 12.6514 8.40884 12.7927 8.40884C12.934 8.40884 13.0617 8.3728 13.1756 8.30071C13.2904 8.22862 13.3812 8.1224 13.4481 7.98206C13.5157 7.84171 13.5495 7.66954 13.5495 7.46555Z" fill="#1C0A05"/>
<path d="M9.76367 6.54068V6.2876H11.5144V6.54068H10.7803V8.64353H10.4977V6.54068H9.76367Z" fill="#1C0A05"/>
<path d="M14.6334 8.98167V6.62573H15.4221C15.6053 6.62573 15.755 6.65909 15.8712 6.72581C15.9882 6.79177 16.0749 6.88111 16.1311 6.99385C16.1873 7.10658 16.2154 7.23235 16.2154 7.37116C16.2154 7.50997 16.1873 7.63613 16.1311 7.74963C16.0756 7.86313 15.9898 7.95363 15.8735 8.02112C15.7572 8.08784 15.6083 8.1212 15.4267 8.1212H14.8614V7.86812H15.4176C15.543 7.86812 15.6436 7.84626 15.7196 7.80255C15.7956 7.75884 15.8507 7.69978 15.8849 7.62539C15.9198 7.55024 15.9373 7.46549 15.9373 7.37116C15.9373 7.27684 15.9198 7.19248 15.8849 7.11809C15.8507 7.0437 15.7952 6.98541 15.7185 6.94323C15.6417 6.90028 15.5399 6.87881 15.413 6.87881H14.9161V8.98167H14.6334Z" fill="white"/>
<path d="M14.1581 7.80368C14.1581 8.05216 14.1137 8.26689 14.0248 8.44788C13.9359 8.62887 13.8139 8.76845 13.6589 8.86661C13.5039 8.96478 13.3268 9.01386 13.1278 9.01386C12.9287 9.01386 12.7516 8.96478 12.5966 8.86661C12.4416 8.76845 12.3197 8.62887 12.2308 8.44788C12.1419 8.26689 12.0974 8.05216 12.0974 7.80368C12.0974 7.55521 12.1419 7.34047 12.2308 7.15948C12.3197 6.97849 12.4416 6.83892 12.5966 6.74075C12.7516 6.64259 12.9287 6.59351 13.1278 6.59351C13.3268 6.59351 13.5039 6.64259 13.6589 6.74075C13.8139 6.83892 13.9359 6.97849 14.0248 7.15948C14.1137 7.34047 14.1581 7.55521 14.1581 7.80368ZM13.8846 7.80368C13.8846 7.59969 13.8508 7.42752 13.7831 7.28717C13.7163 7.14683 13.6255 7.04061 13.5107 6.96852C13.3968 6.89643 13.2691 6.86039 13.1278 6.86039C12.9864 6.86039 12.8584 6.89643 12.7437 6.96852C12.6297 7.04061 12.5389 7.14683 12.4713 7.28717C12.4044 7.42752 12.371 7.59969 12.371 7.80368C12.371 8.00768 12.4044 8.17985 12.4713 8.32019C12.5389 8.46054 12.6297 8.56675 12.7437 8.63884C12.8584 8.71093 12.9864 8.74698 13.1278 8.74698C13.2691 8.74698 13.3968 8.71093 13.5107 8.63884C13.6255 8.56675 13.7163 8.46054 13.7831 8.32019C13.8508 8.17985 13.8846 8.00768 13.8846 7.80368Z" fill="white"/>
<path d="M10.0988 6.87881V6.62573H11.8494V6.87881H11.1154V8.98167H10.8328V6.87881H10.0988Z" fill="white"/>
<path d="M14.2983 8.64353V6.2876H15.0871C15.2702 6.2876 15.4199 6.32096 15.5361 6.38768C15.6531 6.45363 15.7398 6.54298 15.796 6.65571C15.8522 6.76845 15.8803 6.89422 15.8803 7.03303C15.8803 7.17184 15.8522 7.298 15.796 7.4115C15.7405 7.525 15.6547 7.61549 15.5384 7.68298C15.4222 7.7497 15.2732 7.78306 15.0916 7.78306H14.5263V7.52998H15.0825C15.2079 7.52998 15.3086 7.50813 15.3845 7.46441C15.4605 7.4207 15.5156 7.36165 15.5498 7.28726C15.5848 7.2121 15.6022 7.12736 15.6022 7.03303C15.6022 6.9387 15.5848 6.85434 15.5498 6.77995C15.5156 6.70556 15.4601 6.64728 15.3834 6.6051C15.3067 6.56215 15.2048 6.54068 15.0779 6.54068H14.581V8.64353H14.2983Z" fill="#1D1D1B"/>
<path d="M13.823 7.46555C13.823 7.71403 13.7786 7.92876 13.6897 8.10975C13.6008 8.29074 13.4788 8.43031 13.3238 8.52848C13.1688 8.62664 12.9918 8.67572 12.7927 8.67572C12.5936 8.67572 12.4166 8.62664 12.2615 8.52848C12.1065 8.43031 11.9846 8.29074 11.8957 8.10975C11.8068 7.92876 11.7623 7.71403 11.7623 7.46555C11.7623 7.21707 11.8068 7.00234 11.8957 6.82135C11.9846 6.64036 12.1065 6.50078 12.2615 6.40262C12.4166 6.30445 12.5936 6.25537 12.7927 6.25537C12.9918 6.25537 13.1688 6.30445 13.3238 6.40262C13.4788 6.50078 13.6008 6.64036 13.6897 6.82135C13.7786 7.00234 13.823 7.21707 13.823 7.46555ZM13.5495 7.46555C13.5495 7.26155 13.5157 7.08938 13.4481 6.94904C13.3812 6.80869 13.2904 6.70248 13.1756 6.63039C13.0617 6.5583 12.934 6.52225 12.7927 6.52225C12.6514 6.52225 12.5233 6.5583 12.4086 6.63039C12.2946 6.70248 12.2038 6.80869 12.1362 6.94904C12.0693 7.08938 12.0359 7.26155 12.0359 7.46555C12.0359 7.66954 12.0693 7.84171 12.1362 7.98206C12.2038 8.1224 12.2946 8.22862 12.4086 8.30071C12.5233 8.3728 12.6514 8.40884 12.7927 8.40884C12.934 8.40884 13.0617 8.3728 13.1756 8.30071C13.2904 8.22862 13.3812 8.1224 13.4481 7.98206C13.5157 7.84171 13.5495 7.66954 13.5495 7.46555Z" fill="#1D1D1B"/>
<path d="M9.76367 6.54068V6.2876H11.5144V6.54068H10.7803V8.64353H10.4977V6.54068H9.76367Z" fill="#1D1D1B"/>
<path d="M13.5451 17.0615C13.1004 17.0615 12.7041 16.9844 12.356 16.8303C12.0101 16.6762 11.735 16.462 11.5307 16.1877C11.3286 15.9112 11.2185 15.5905 11.2006 15.2256H12.0494C12.0674 15.4499 12.1438 15.6437 12.2785 15.8069C12.4132 15.9679 12.5895 16.0925 12.8074 16.1809C13.0252 16.2693 13.2666 16.3135 13.5316 16.3135C13.828 16.3135 14.0908 16.2614 14.3198 16.1571C14.5489 16.0528 14.7286 15.9078 14.8588 15.7219C14.9891 15.5361 15.0542 15.3207 15.0542 15.076C15.0542 14.8198 14.9913 14.5943 14.8655 14.3994C14.7398 14.2022 14.5556 14.0481 14.3131 13.937C14.0706 13.826 13.7741 13.7704 13.4238 13.7704H12.8714V13.0225H13.4238C13.6978 13.0225 13.9381 12.9726 14.1447 12.8729C14.3535 12.7731 14.5163 12.6326 14.6331 12.4513C14.7521 12.27 14.8117 12.0569 14.8117 11.8121C14.8117 11.5764 14.76 11.3713 14.6567 11.1967C14.5534 11.0222 14.4074 10.8862 14.2188 10.7888C14.0324 10.6913 13.8123 10.6426 13.5585 10.6426C13.3205 10.6426 13.0959 10.6868 12.8848 10.7752C12.676 10.8613 12.5053 10.9871 12.3728 11.1525C12.2403 11.3157 12.1685 11.5129 12.1572 11.7441H11.3488C11.3623 11.3792 11.4712 11.0596 11.6755 10.7854C11.8799 10.5088 12.1471 10.2935 12.4772 10.1394C12.8096 9.98527 13.1745 9.9082 13.572 9.9082C13.9987 9.9082 14.3648 9.99547 14.6702 10.17C14.9756 10.3422 15.2103 10.57 15.3742 10.8534C15.5381 11.1367 15.6201 11.4427 15.6201 11.7713C15.6201 12.1634 15.5179 12.4977 15.3136 12.7743C15.1115 13.0508 14.8364 13.2423 14.4883 13.3488V13.4032C14.9239 13.4758 15.2642 13.6628 15.5089 13.9642C15.7537 14.2634 15.8761 14.634 15.8761 15.076C15.8761 15.4545 15.7739 15.7945 15.5696 16.0959C15.3675 16.3951 15.0912 16.6308 14.7409 16.8031C14.3906 16.9753 13.992 17.0615 13.5451 17.0615Z" fill="#1C0A05"/>
<path d="M13.88 17.3996C13.4354 17.3996 13.039 17.3225 12.6909 17.1684C12.3451 17.0143 12.07 16.8001 11.8656 16.5258C11.6635 16.2493 11.5535 15.9286 11.5355 15.5637H12.3844C12.4024 15.7881 12.4787 15.9819 12.6135 16.1451C12.7482 16.306 12.9245 16.4306 13.1423 16.519C13.3602 16.6074 13.6016 16.6516 13.8666 16.6516C14.163 16.6516 14.4257 16.5995 14.6548 16.4952C14.8839 16.391 15.0635 16.2459 15.1938 16.0601C15.324 15.8742 15.3891 15.6589 15.3891 15.4141C15.3891 15.158 15.3263 14.9325 15.2005 14.7375C15.0747 14.5403 14.8906 14.3862 14.6481 14.2751C14.4055 14.1641 14.1091 14.1086 13.7588 14.1086H13.2063V13.3606H13.7588C14.0327 13.3606 14.273 13.3107 14.4796 13.211C14.6885 13.1113 14.8513 12.9707 14.9681 12.7894C15.0871 12.6081 15.1466 12.395 15.1466 12.1502C15.1466 11.9145 15.095 11.7094 14.9917 11.5349C14.8884 11.3604 14.7424 11.2244 14.5537 11.1269C14.3674 11.0294 14.1473 10.9807 13.8935 10.9807C13.6555 10.9807 13.4309 11.0249 13.2198 11.1133C13.0109 11.1994 12.8403 11.3252 12.7078 11.4907C12.5753 11.6539 12.5034 11.8511 12.4922 12.0823H11.6837C11.6972 11.7173 11.8061 11.3978 12.0105 11.1235C12.2148 10.847 12.4821 10.6317 12.8122 10.4775C13.1446 10.3234 13.5095 10.2463 13.907 10.2463C14.3337 10.2463 14.6997 10.3336 15.0051 10.5081C15.3105 10.6804 15.5452 10.9082 15.7092 11.1915C15.8731 11.4748 15.9551 11.7808 15.9551 12.1095C15.9551 12.5016 15.8529 12.8359 15.6485 13.1124C15.4464 13.3889 15.1713 13.5804 14.8232 13.687V13.7414C15.2589 13.8139 15.5991 14.0009 15.8439 14.3023C16.0887 14.6015 16.2111 14.9721 16.2111 15.4141C16.2111 15.7926 16.1089 16.1326 15.9045 16.434C15.7024 16.7332 15.4262 16.969 15.0759 17.1412C14.7255 17.3135 14.3269 17.3996 13.88 17.3996Z" fill="white"/>
<path d="M13.5451 17.0615C13.1004 17.0615 12.7041 16.9844 12.356 16.8303C12.0101 16.6762 11.735 16.462 11.5307 16.1877C11.3286 15.9112 11.2185 15.5905 11.2006 15.2256H12.0494C12.0674 15.4499 12.1438 15.6437 12.2785 15.8069C12.4132 15.9679 12.5895 16.0925 12.8074 16.1809C13.0252 16.2693 13.2666 16.3135 13.5316 16.3135C13.828 16.3135 14.0908 16.2614 14.3198 16.1571C14.5489 16.0528 14.7286 15.9078 14.8588 15.7219C14.9891 15.5361 15.0542 15.3207 15.0542 15.076C15.0542 14.8198 14.9913 14.5943 14.8655 14.3994C14.7398 14.2022 14.5556 14.0481 14.3131 13.937C14.0706 13.826 13.7741 13.7704 13.4238 13.7704H12.8714V13.0225H13.4238C13.6978 13.0225 13.9381 12.9726 14.1447 12.8729C14.3535 12.7731 14.5163 12.6326 14.6331 12.4513C14.7521 12.27 14.8117 12.0569 14.8117 11.8121C14.8117 11.5764 14.76 11.3713 14.6567 11.1967C14.5534 11.0222 14.4074 10.8862 14.2188 10.7888C14.0324 10.6913 13.8123 10.6426 13.5585 10.6426C13.3205 10.6426 13.0959 10.6868 12.8848 10.7752C12.676 10.8613 12.5053 10.9871 12.3728 11.1525C12.2403 11.3157 12.1685 11.5129 12.1572 11.7441H11.3488C11.3623 11.3792 11.4712 11.0596 11.6755 10.7854C11.8799 10.5088 12.1471 10.2935 12.4772 10.1394C12.8096 9.98527 13.1745 9.9082 13.572 9.9082C13.9987 9.9082 14.3648 9.99547 14.6702 10.17C14.9756 10.3422 15.2103 10.57 15.3742 10.8534C15.5381 11.1367 15.6201 11.4427 15.6201 11.7713C15.6201 12.1634 15.5179 12.4977 15.3136 12.7743C15.1115 13.0508 14.8364 13.2423 14.4883 13.3488V13.4032C14.9239 13.4758 15.2642 13.6628 15.5089 13.9642C15.7537 14.2634 15.8761 14.634 15.8761 15.076C15.8761 15.4545 15.7739 15.7945 15.5696 16.0959C15.3675 16.3951 15.0912 16.6308 14.7409 16.8031C14.3906 16.9753 13.992 17.0615 13.5451 17.0615Z" fill="#1D1D1B"/>
</svg>
