<svg width="25" height="26" viewBox="0 0 25 26" fill="none" xmlns="http://www.w3.org/2000/svg">
<path d="M19.1728 22.4736C19.0516 22.474 18.9309 22.4596 18.8132 22.4308L13.2472 21.0782C13.1833 21.0625 13.1167 21.0625 13.0529 21.0782L7.48687 22.4308C7.27179 22.4838 7.04786 22.4889 6.83064 22.4458C6.61341 22.4026 6.4081 22.3123 6.22894 22.181C6.04978 22.0497 5.90108 21.8807 5.79316 21.6856C5.68524 21.4905 5.62069 21.274 5.60399 21.0512L5.15728 15.2892C5.15191 15.2237 5.13124 15.1603 5.09698 15.1044L2.10403 10.1788C1.988 9.98851 1.91432 9.77509 1.88809 9.55325C1.86185 9.33142 1.88369 9.10649 1.95209 8.89401C2.0205 8.68154 2.13383 8.48661 2.28424 8.32271C2.43466 8.15881 2.61856 8.02985 2.82323 7.94477L8.11449 5.73782C8.17485 5.71245 8.22841 5.67306 8.27084 5.62286L11.9875 1.22474C12.1309 1.05532 12.309 0.919234 12.5095 0.825843C12.7099 0.732452 12.9281 0.683966 13.1489 0.683716C13.3701 0.683641 13.5886 0.731969 13.7895 0.825371C13.9904 0.918773 14.1689 1.05503 14.3126 1.22474L18.0292 5.62286C18.0716 5.67306 18.1252 5.71245 18.1855 5.73782L23.4768 7.94477C23.6815 8.02985 23.8654 8.15881 24.0158 8.32271C24.1662 8.48661 24.2795 8.68154 24.3479 8.89401C24.4163 9.10649 24.4382 9.33142 24.4119 9.55325C24.3857 9.77509 24.312 9.98851 24.196 10.1788L21.2008 15.1111C21.1656 15.1666 21.1448 15.2302 21.1405 15.296L20.6938 21.058C20.6645 21.4453 20.4912 21.8071 20.2087 22.0709C19.9262 22.3347 19.5554 22.481 19.1705 22.4804L19.1728 22.4736ZM13.1489 1.81086C13.0893 1.81051 13.0304 1.82346 12.9763 1.84879C12.9222 1.87413 12.8744 1.91121 12.8362 1.95739L9.11959 6.3555C8.96226 6.53831 8.76392 6.68052 8.5411 6.77029L3.24984 8.98625C3.19387 9.01 3.14382 9.04597 3.10327 9.09157C3.06272 9.13718 3.03268 9.19128 3.01532 9.25C2.99616 9.30689 2.98982 9.36737 2.99678 9.42704C3.00373 9.48671 3.0238 9.54406 3.05552 9.59491L6.0507 14.5138C6.17852 14.7216 6.25512 14.9574 6.27405 15.2013L6.72076 20.9633C6.72492 21.0232 6.74199 21.0815 6.77079 21.1341C6.79958 21.1867 6.83941 21.2322 6.88749 21.2677C6.93556 21.3031 6.99073 21.3275 7.04912 21.3392C7.10751 21.3508 7.16772 21.3495 7.22554 21.3352L12.7938 19.9827C13.0295 19.9266 13.275 19.9266 13.5107 19.9827L19.0767 21.3352C19.1338 21.349 19.1932 21.3503 19.2509 21.339C19.3085 21.3277 19.3631 21.3041 19.4109 21.2697C19.4588 21.2353 19.4987 21.191 19.5282 21.1397C19.5576 21.0884 19.5758 21.0313 19.5815 20.9723L20.0282 15.2103C20.0482 14.9666 20.1247 14.7311 20.2516 14.5228L23.2445 9.58814C23.2762 9.5373 23.2963 9.47995 23.3032 9.42028C23.3102 9.36061 23.3039 9.30012 23.2847 9.24324C23.2677 9.18684 23.239 9.13476 23.2005 9.09044C23.162 9.04613 23.1145 9.01061 23.0613 8.98625L17.7589 6.77029C17.5348 6.67741 17.3358 6.53216 17.1782 6.34648L13.4638 1.95739C13.4254 1.91091 13.3772 1.87365 13.3227 1.84831C13.2682 1.82297 13.2089 1.81017 13.1489 1.81086Z" fill="#939393"/>
<path d="M13.218 0.909073L16.9346 5.30493C17.0331 5.4238 17.1589 5.51665 17.3009 5.57544L22.5944 7.78239C22.7235 7.83733 22.8393 7.91988 22.9338 8.02433C23.0282 8.12878 23.0992 8.25267 23.1416 8.38744C23.1841 8.52221 23.1971 8.66468 23.1797 8.80501C23.1624 8.94535 23.1151 9.08022 23.0411 9.20034L20.0549 14.1327C19.9741 14.2651 19.9258 14.415 19.9142 14.57L19.4675 20.332C19.4556 20.4724 19.4139 20.6085 19.345 20.731C19.2761 20.8535 19.1818 20.9596 19.0685 21.0418C18.9551 21.124 18.8255 21.1805 18.6885 21.2075C18.5515 21.2344 18.4104 21.231 18.2748 21.1976L12.7065 19.8451C12.5597 19.8101 12.4067 19.8101 12.2598 19.8451L6.68491 21.1976C6.5485 21.231 6.40653 21.2341 6.26881 21.2067C6.13109 21.1793 6.00092 21.122 5.88729 21.0389C5.77365 20.9557 5.67927 20.8486 5.61067 20.725C5.54207 20.6014 5.50089 20.4642 5.48997 20.323L5.04326 14.561C5.03363 14.41 4.98928 14.2634 4.91371 14.1327L1.9096 9.2071C1.83564 9.08698 1.78835 8.95211 1.77101 8.81178C1.75366 8.67144 1.76666 8.52898 1.80912 8.3942C1.85158 8.25943 1.92249 8.13555 2.01695 8.03109C2.11142 7.92664 2.22719 7.8441 2.35631 7.78915L7.6498 5.58221C7.79187 5.52342 7.9176 5.43057 8.0161 5.31169L11.7416 0.909073C11.8324 0.800819 11.9455 0.713832 12.073 0.654169C12.2005 0.594506 12.3393 0.563599 12.4798 0.563599C12.6204 0.563599 12.7592 0.594506 12.8867 0.654169C13.0142 0.713832 13.1272 0.800819 13.218 0.909073Z" fill="#F4F4F4"/>
<path d="M12.4798 0C12.7014 0 12.9206 0.0487632 13.1217 0.142874C13.3227 0.236981 13.5011 0.374133 13.6443 0.544859L13.6441 0.545079L17.3593 4.93918L17.3613 4.94116L17.363 4.94336C17.3932 4.97981 17.4297 5.0103 17.4706 5.0334L17.5129 5.05387L17.5142 5.05453L22.8077 7.26149L22.8095 7.26237L22.8114 7.26303C23.0149 7.34962 23.1974 7.47971 23.3463 7.64432C23.4951 7.80894 23.607 8.00429 23.6739 8.2167C23.7408 8.42907 23.7612 8.65358 23.7339 8.87471C23.7067 9.09444 23.6328 9.3056 23.5175 9.49398L20.5314 14.4265L20.5303 14.4283C20.4963 14.4841 20.4759 14.5473 20.471 14.6126L20.4708 14.6139L20.0241 20.376V20.3777L20.0239 20.3797C20.0052 20.6011 19.9393 20.8158 19.8306 21.0091C19.722 21.2024 19.5731 21.3697 19.3944 21.4994C19.2157 21.6291 19.0113 21.7183 18.7952 21.7607C18.5796 21.803 18.3575 21.7976 18.1441 21.7453L12.5781 20.3934C12.5157 20.3785 12.4506 20.3787 12.3882 20.3936L12.3879 20.3934L6.81631 21.7451L6.81653 21.7453C6.60157 21.7979 6.37787 21.8028 6.16086 21.7596C5.94381 21.7164 5.73859 21.6261 5.55951 21.495C5.38043 21.3639 5.2316 21.1951 5.12349 21.0003C5.01542 20.8056 4.95051 20.5895 4.93329 20.3669L4.48658 14.6049L4.48636 14.6011L4.48614 14.5972C4.48208 14.5336 4.46321 14.4719 4.43139 14.4169L1.43553 9.50432L1.43531 9.50454C1.31875 9.31525 1.24431 9.10268 1.21697 8.88153C1.18963 8.66036 1.21004 8.43571 1.27695 8.2233C1.34387 8.01092 1.45571 7.81575 1.60457 7.65114C1.75344 7.48652 1.93591 7.35644 2.1394 7.26985L2.14136 7.26897L2.1431 7.26831L7.43664 5.06136L7.43795 5.0607C7.49603 5.03666 7.54752 4.99877 7.5878 4.95018L7.58976 4.94798L7.5915 4.94556L11.317 0.543098C11.4599 0.373201 11.6377 0.236649 11.8381 0.142874C12.0391 0.0487755 12.2581 1.27414e-05 12.4798 0ZM12.4798 1.12714C12.4204 1.12716 12.3617 1.14024 12.3079 1.16545C12.254 1.19066 12.2062 1.22737 12.1679 1.2731L12.1663 1.27508L8.44064 5.67776L8.44042 5.67754C8.28456 5.86415 8.08654 6.01005 7.86284 6.10286L2.57302 8.30828L2.57324 8.3085C2.51852 8.33179 2.46953 8.36682 2.42949 8.41108C2.38945 8.45537 2.35938 8.50783 2.34137 8.56497C2.32338 8.62209 2.31767 8.68248 2.32502 8.74196C2.33053 8.7866 2.34331 8.82994 2.36253 8.87031L2.38391 8.90949L2.38522 8.91169L5.39264 13.8429L5.39592 13.8487C5.5139 14.0527 5.58342 14.2814 5.59964 14.517H5.60008L6.04678 20.2789C6.05141 20.3387 6.06876 20.3971 6.09782 20.4495C6.12691 20.5019 6.167 20.5474 6.21517 20.5827C6.26331 20.6179 6.31847 20.6422 6.3768 20.6538C6.43518 20.6654 6.49543 20.664 6.55326 20.6498L6.55435 20.6496L12.1293 19.297L12.1314 19.2966C12.3338 19.2483 12.5436 19.2423 12.7478 19.2785L12.8349 19.2966L12.8373 19.297L18.4054 20.6496L18.4069 20.6501C18.4642 20.6642 18.524 20.6656 18.5819 20.6542C18.6398 20.6429 18.6945 20.619 18.7424 20.5842C18.7903 20.5495 18.8302 20.5046 18.8593 20.4528C18.8884 20.401 18.906 20.3435 18.911 20.2842L19.3575 14.5261C19.3761 14.2818 19.4522 14.0456 19.5796 13.837L22.5647 8.90641L22.5669 8.90289C22.5983 8.85197 22.6182 8.79464 22.6256 8.73514C22.6329 8.67566 22.6274 8.61525 22.6094 8.55814C22.5914 8.50102 22.5614 8.44853 22.5213 8.40426C22.4813 8.36 22.4323 8.32496 22.3776 8.30167L17.0891 6.0967C16.8631 6.00316 16.663 5.85563 16.5063 5.66653L12.7932 1.27486L12.7919 1.2731C12.7535 1.22737 12.7057 1.19066 12.6519 1.16545C12.598 1.14023 12.5392 1.12714 12.4798 1.12714Z" fill="#ADADAD"/>
<path d="M2.68248 14.313L2.34298 15.3162L2.97284 16.166L1.92085 16.1525L1.31556 17.0182L1.00286 16.006L0 15.6904L0.85768 15.0795L0.844278 14.0177L1.68632 14.6534L2.68248 14.313Z" fill="#ECDEC6"/>
<path d="M20.9707 2.1918L20.6334 3.19495L21.2611 4.04482L20.2113 4.03129L19.6038 4.89694L19.2933 3.88476L18.2882 3.56916L19.1459 2.95825L19.1325 1.89648L19.9745 2.53219L20.9707 2.1918Z" fill="#ECDEC6"/>
<path d="M14.0578 22.8681L13.7205 23.8713L14.3504 24.7234L13.2984 24.7076L12.6931 25.5755L12.3804 24.5611L11.3776 24.2478L12.2352 23.6346L12.2218 22.5751L13.0639 23.2085L14.0578 22.8681Z" fill="#ECDEC6"/>
<path d="M6.65816 2.91985L6.04841 3.16782L5.90546 3.81705L5.48109 3.30759L4.82666 3.37296L5.17509 2.80939L4.91153 2.19848L5.55256 2.35853L6.04394 1.91895L6.09084 2.58171L6.65816 2.91985Z" fill="#ECDEC6"/>
<path d="M24.4372 16.3195L23.8252 16.5675L23.6845 17.2167L23.2601 16.7072L22.6057 16.7704L22.9541 16.2068L22.6906 15.5981L23.3294 15.7582L23.823 15.3186L23.8699 15.9814L24.4372 16.3195Z" fill="#ECDEC6"/>
<path d="M14.2982 8.64341V6.28748H15.0869C15.2701 6.28748 15.4198 6.32084 15.536 6.38756C15.653 6.45351 15.7396 6.54286 15.7959 6.65559C15.8521 6.76833 15.8802 6.8941 15.8802 7.03291C15.8802 7.17172 15.8521 7.29787 15.7959 7.41138C15.7404 7.52488 15.6545 7.61537 15.5383 7.68286C15.422 7.74958 15.2731 7.78294 15.0915 7.78294H14.5262V7.52986H15.0824C15.2078 7.52986 15.3084 7.50801 15.3844 7.46429C15.4604 7.42058 15.5155 7.36153 15.5497 7.28714C15.5846 7.21198 15.6021 7.12724 15.6021 7.03291C15.6021 6.93858 15.5846 6.85422 15.5497 6.77983C15.5155 6.70544 15.46 6.64715 15.3833 6.60497C15.3065 6.56203 15.2047 6.54055 15.0778 6.54055H14.5809V8.64341H14.2982Z" fill="#1C0A05"/>
<path d="M13.8229 7.46555C13.8229 7.71403 13.7785 7.92876 13.6896 8.10975C13.6007 8.29074 13.4787 8.43032 13.3237 8.52848C13.1687 8.62664 12.9916 8.67572 12.7926 8.67572C12.5935 8.67572 12.4164 8.62664 12.2614 8.52848C12.1064 8.43032 11.9845 8.29074 11.8956 8.10975C11.8067 7.92876 11.7622 7.71403 11.7622 7.46555C11.7622 7.21707 11.8067 7.00234 11.8956 6.82135C11.9845 6.64036 12.1064 6.50078 12.2614 6.40262C12.4164 6.30445 12.5935 6.25537 12.7926 6.25537C12.9916 6.25537 13.1687 6.30445 13.3237 6.40262C13.4787 6.50078 13.6007 6.64036 13.6896 6.82135C13.7785 7.00234 13.8229 7.21707 13.8229 7.46555ZM13.5494 7.46555C13.5494 7.26155 13.5156 7.08938 13.4479 6.94904C13.3811 6.80869 13.2903 6.70248 13.1755 6.63039C13.0615 6.5583 12.9339 6.52225 12.7926 6.52225C12.6512 6.52225 12.5232 6.5583 12.4085 6.63039C12.2945 6.70248 12.2037 6.80869 12.1361 6.94904C12.0692 7.08938 12.0358 7.26155 12.0358 7.46555C12.0358 7.66954 12.0692 7.84172 12.1361 7.98206C12.2037 8.1224 12.2945 8.22862 12.4085 8.30071C12.5232 8.3728 12.6512 8.40884 12.7926 8.40884C12.9339 8.40884 13.0615 8.3728 13.1755 8.30071C13.2903 8.22862 13.3811 8.1224 13.4479 7.98206C13.5156 7.84172 13.5494 7.66954 13.5494 7.46555Z" fill="#1C0A05"/>
<path d="M9.76355 6.54055V6.28748H11.5142V6.54055H10.7802V8.64341H10.4976V6.54055H9.76355Z" fill="#1C0A05"/>
<path d="M14.6332 8.98179V6.62585H15.4219C15.605 6.62585 15.7547 6.65921 15.871 6.72594C15.988 6.79189 16.0746 6.88123 16.1308 6.99397C16.1871 7.1067 16.2152 7.23248 16.2152 7.37129C16.2152 7.5101 16.1871 7.63625 16.1308 7.74975C16.0754 7.86326 15.9895 7.95375 15.8733 8.02124C15.757 8.08796 15.6081 8.12132 15.4265 8.12132H14.8611V7.86824H15.4173C15.5427 7.86824 15.6434 7.84638 15.7194 7.80267C15.7954 7.75896 15.8505 7.69991 15.8846 7.62552C15.9196 7.55036 15.9371 7.46562 15.9371 7.37129C15.9371 7.27696 15.9196 7.1926 15.8846 7.11821C15.8505 7.04382 15.795 6.98553 15.7182 6.94335C15.6415 6.90041 15.5397 6.87893 15.4128 6.87893H14.9158V8.98179H14.6332Z" fill="white"/>
<path d="M14.158 7.80368C14.158 8.05216 14.1135 8.26689 14.0246 8.44788C13.9357 8.62887 13.8138 8.76845 13.6588 8.86661C13.5038 8.96478 13.3267 9.01386 13.1276 9.01386C12.9286 9.01386 12.7515 8.96478 12.5965 8.86661C12.4415 8.76845 12.3195 8.62887 12.2306 8.44788C12.1417 8.26689 12.0973 8.05216 12.0973 7.80368C12.0973 7.55521 12.1417 7.34047 12.2306 7.15948C12.3195 6.97849 12.4415 6.83892 12.5965 6.74075C12.7515 6.64259 12.9286 6.59351 13.1276 6.59351C13.3267 6.59351 13.5038 6.64259 13.6588 6.74075C13.8138 6.83892 13.9357 6.97849 14.0246 7.15948C14.1135 7.34047 14.158 7.55521 14.158 7.80368ZM13.8845 7.80368C13.8845 7.59969 13.8506 7.42752 13.783 7.28717C13.7161 7.14683 13.6253 7.04061 13.5106 6.96852C13.3966 6.89643 13.269 6.86039 13.1276 6.86039C12.9863 6.86039 12.8583 6.89643 12.7435 6.96852C12.6296 7.04061 12.5388 7.14683 12.4711 7.28717C12.4043 7.42752 12.3708 7.59969 12.3708 7.80368C12.3708 8.00768 12.4043 8.17985 12.4711 8.32019C12.5388 8.46054 12.6296 8.56675 12.7435 8.63884C12.8583 8.71093 12.9863 8.74698 13.1276 8.74698C13.269 8.74698 13.3966 8.71093 13.5106 8.63884C13.6253 8.56675 13.7161 8.46054 13.783 8.32019C13.8506 8.17985 13.8845 8.00768 13.8845 7.80368Z" fill="white"/>
<path d="M10.0986 6.87893V6.62585H11.8493V6.87893H11.1153V8.98179H10.8326V6.87893H10.0986Z" fill="white"/>
<path d="M14.2982 8.64341V6.28748H15.0869C15.2701 6.28748 15.4198 6.32084 15.536 6.38756C15.653 6.45351 15.7396 6.54286 15.7959 6.65559C15.8521 6.76833 15.8802 6.8941 15.8802 7.03291C15.8802 7.17172 15.8521 7.29787 15.7959 7.41138C15.7404 7.52488 15.6545 7.61537 15.5383 7.68286C15.422 7.74958 15.2731 7.78294 15.0915 7.78294H14.5262V7.52986H15.0824C15.2078 7.52986 15.3084 7.50801 15.3844 7.46429C15.4604 7.42058 15.5155 7.36153 15.5497 7.28714C15.5846 7.21198 15.6021 7.12724 15.6021 7.03291C15.6021 6.93858 15.5846 6.85422 15.5497 6.77983C15.5155 6.70544 15.46 6.64715 15.3833 6.60497C15.3065 6.56203 15.2047 6.54055 15.0778 6.54055H14.5809V8.64341H14.2982Z" fill="#1D1D1B"/>
<path d="M13.8229 7.46555C13.8229 7.71403 13.7785 7.92876 13.6896 8.10975C13.6007 8.29074 13.4787 8.43032 13.3237 8.52848C13.1687 8.62664 12.9916 8.67572 12.7926 8.67572C12.5935 8.67572 12.4164 8.62664 12.2614 8.52848C12.1064 8.43032 11.9845 8.29074 11.8956 8.10975C11.8067 7.92876 11.7622 7.71403 11.7622 7.46555C11.7622 7.21707 11.8067 7.00234 11.8956 6.82135C11.9845 6.64036 12.1064 6.50078 12.2614 6.40262C12.4164 6.30445 12.5935 6.25537 12.7926 6.25537C12.9916 6.25537 13.1687 6.30445 13.3237 6.40262C13.4787 6.50078 13.6007 6.64036 13.6896 6.82135C13.7785 7.00234 13.8229 7.21707 13.8229 7.46555ZM13.5494 7.46555C13.5494 7.26155 13.5156 7.08938 13.4479 6.94904C13.3811 6.80869 13.2903 6.70248 13.1755 6.63039C13.0615 6.5583 12.9339 6.52225 12.7926 6.52225C12.6512 6.52225 12.5232 6.5583 12.4085 6.63039C12.2945 6.70248 12.2037 6.80869 12.1361 6.94904C12.0692 7.08938 12.0358 7.26155 12.0358 7.46555C12.0358 7.66954 12.0692 7.84172 12.1361 7.98206C12.2037 8.1224 12.2945 8.22862 12.4085 8.30071C12.5232 8.3728 12.6512 8.40884 12.7926 8.40884C12.9339 8.40884 13.0615 8.3728 13.1755 8.30071C13.2903 8.22862 13.3811 8.1224 13.4479 7.98206C13.5156 7.84172 13.5494 7.66954 13.5494 7.46555Z" fill="#1D1D1B"/>
<path d="M9.76355 6.54055V6.28748H11.5142V6.54055H10.7802V8.64341H10.4976V6.54055H9.76355Z" fill="#1D1D1B"/>
<path d="M11.214 16.9664V16.3544L13.4911 13.8385C13.7584 13.5439 13.9784 13.2878 14.1514 13.0702C14.3243 12.8503 14.4523 12.6441 14.5354 12.4514C14.6207 12.2565 14.6634 12.0525 14.6634 11.8394C14.6634 11.5946 14.605 11.3827 14.4882 11.2037C14.3737 11.0246 14.2165 10.8863 14.0166 10.7889C13.8168 10.6914 13.5922 10.6427 13.3429 10.6427C13.0779 10.6427 12.8466 10.6982 12.649 10.8093C12.4536 10.9181 12.302 11.0711 12.1942 11.2683C12.0887 11.4655 12.0359 11.6966 12.0359 11.9618H11.2409C11.2409 11.5538 11.3341 11.1957 11.5205 10.8875C11.7069 10.5792 11.9607 10.339 12.2818 10.1667C12.6052 9.99445 12.9679 9.90833 13.3699 9.90833C13.7741 9.90833 14.1323 9.99445 14.4444 10.1667C14.7566 10.339 15.0014 10.5713 15.1788 10.8637C15.3562 11.1561 15.4449 11.4813 15.4449 11.8394C15.4449 12.0956 15.3989 12.346 15.3068 12.5908C15.217 12.8333 15.0598 13.1042 14.8352 13.4034C14.6129 13.7003 14.3041 14.0629 13.9088 14.4913L12.3593 16.164V16.2184H15.5662V16.9664H11.214Z" fill="#1C0A05"/>
<path d="M11.5491 17.3047V16.6927L13.8262 14.1768C14.0935 13.8821 14.3135 13.626 14.4865 13.4084C14.6594 13.1886 14.7874 12.9823 14.8705 12.7897C14.9558 12.5947 14.9985 12.3907 14.9985 12.1777C14.9985 11.9329 14.9401 11.721 14.8233 11.5419C14.7088 11.3629 14.5516 11.2246 14.3517 11.1271C14.1518 11.0297 13.9273 10.9809 13.678 10.9809C13.413 10.9809 13.1817 11.0365 12.9841 11.1475C12.7887 11.2563 12.6371 11.4093 12.5293 11.6065C12.4238 11.8037 12.371 12.0349 12.371 12.3001H11.576C11.576 11.8921 11.6692 11.534 11.8556 11.2257C12.042 10.9175 12.2958 10.6772 12.6169 10.505C12.9403 10.3327 13.303 10.2466 13.7049 10.2466C14.1092 10.2466 14.4674 10.3327 14.7795 10.505C15.0917 10.6772 15.3364 10.9096 15.5139 11.2019C15.6913 11.4943 15.78 11.8196 15.78 12.1777C15.78 12.4338 15.7339 12.6843 15.6419 12.9291C15.552 13.1716 15.3948 13.4424 15.1703 13.7416C14.9479 14.0385 14.6392 14.4012 14.2439 14.8296L12.6944 16.5023V16.5567H15.9012V17.3047H11.5491Z" fill="white"/>
<path d="M11.214 16.9664V16.3544L13.4911 13.8385C13.7584 13.5439 13.9784 13.2878 14.1514 13.0702C14.3243 12.8503 14.4523 12.6441 14.5354 12.4514C14.6207 12.2565 14.6634 12.0525 14.6634 11.8394C14.6634 11.5946 14.605 11.3827 14.4882 11.2037C14.3737 11.0246 14.2165 10.8863 14.0166 10.7889C13.8168 10.6914 13.5922 10.6427 13.3429 10.6427C13.0779 10.6427 12.8466 10.6982 12.649 10.8093C12.4536 10.9181 12.302 11.0711 12.1942 11.2683C12.0887 11.4655 12.0359 11.6966 12.0359 11.9618H11.2409C11.2409 11.5538 11.3341 11.1957 11.5205 10.8875C11.7069 10.5792 11.9607 10.339 12.2818 10.1667C12.6052 9.99445 12.9679 9.90833 13.3699 9.90833C13.7741 9.90833 14.1323 9.99445 14.4444 10.1667C14.7566 10.339 15.0014 10.5713 15.1788 10.8637C15.3562 11.1561 15.4449 11.4813 15.4449 11.8394C15.4449 12.0956 15.3989 12.346 15.3068 12.5908C15.217 12.8333 15.0598 13.1042 14.8352 13.4034C14.6129 13.7003 14.3041 14.0629 13.9088 14.4913L12.3593 16.164V16.2184H15.5662V16.9664H11.214Z" fill="#1D1D1B"/>
</svg>
